<svg xmlns="http://www.w3.org/2000/svg" width="64" height="64" viewBox="0 0 64 64" role="img" aria-label="TinyWins">
  <rect width="64" height="64" rx="16" fill="#fbf7ef"/>
  <path d="M32 11c-7.2 0-13 5.8-13 13 0 5.9 3.9 11 9.3 12.6V46h7.4V36.6C41.1 35 45 29.9 45 24c0-7.2-5.8-13-13-13Z" fill="#2f2a22"/>
  <path d="M28 46h8c2.5 0 4.5 2 4.5 4.5S38.5 55 36 55h-8c-2.5 0-4.5-2-4.5-4.5S25.5 46 28 46Z" fill="#2f2a22" opacity="0.14"/>
  <path d="M38.8 18.2a1.7 1.7 0 0 1 0 2.4l-7.8 7.8a1.7 1.7 0 0 1-2.4 0l-3.4-3.4a1.7 1.7 0 0 1 2.4-2.4l2.2 2.2 6.6-6.6a1.7 1.7 0 0 1 2.4 0Z" fill="#276749"/>
</svg>

